<svg width="1800" height="745" viewBox="0 0 1800 745" fill="none" xmlns="http://www.w3.org/2000/svg">
<mask id="mask0_536_17" style="mask-type:alpha" maskUnits="userSpaceOnUse" x="0" y="0" width="1800" height="745">
<rect width="1800" height="745" fill="#C4C4C4"/>
</mask>
<g mask="url(#mask0_536_17)">
<path d="M138.854 -452V795" stroke="#1E78FF" stroke-opacity="0.04"/>
<path d="M278.854 -452V795" stroke="#1E78FF" stroke-opacity="0.04"/>
<path d="M416.854 -452V795" stroke="#1E78FF" stroke-opacity="0.04"/>
<path d="M556.854 -452V795" stroke="#1E78FF" stroke-opacity="0.04"/>
<path d="M697.854 -452V795" stroke="#1E78FF" stroke-opacity="0.04"/>
<path d="M837.854 -452V795" stroke="#1E78FF" stroke-opacity="0.04"/>
<path d="M975.854 -452V795" stroke="#1E78FF" stroke-opacity="0.04"/>
<path d="M1115.85 -452V795" stroke="#1E78FF" stroke-opacity="0.04"/>
<path d="M1255.85 -452V795" stroke="#1E78FF" stroke-opacity="0.04"/>
<path d="M1395.85 -452V795" stroke="#1E78FF" stroke-opacity="0.04"/>
<path d="M1533.85 -452V795" stroke="#1E78FF" stroke-opacity="0.04"/>
<path d="M1673.85 -452V795" stroke="#1E78FF" stroke-opacity="0.04"/>
<path d="M1797.85 105H-0.146484" stroke="#1E78FF" stroke-opacity="0.04"/>
<path d="M1797.85 245H-0.146484" stroke="#1E78FF" stroke-opacity="0.04"/>
<path d="M1797.85 385H-0.146484" stroke="#1E78FF" stroke-opacity="0.04"/>
<path d="M1797.85 525H-0.146484" stroke="#1E78FF" stroke-opacity="0.04"/>
<path d="M1797.85 665H-0.146484" stroke="#1E78FF" stroke-opacity="0.04"/>
<circle cx="696.854" cy="105" r="3" fill="#D1DFF4" fill-opacity="0.25"/>
<circle cx="696.854" cy="245" r="3" fill="#D1DFF4" fill-opacity="0.25"/>
<circle cx="837.854" cy="245" r="3" fill="#D1DFF4" fill-opacity="0.25"/>
<circle cx="837.854" cy="105" r="3" fill="#D1DFF4" fill-opacity="0.25"/>
<circle cx="971.854" cy="105" r="3" fill="#D1DFF4" fill-opacity="0.25"/>
<circle cx="975.854" cy="245" r="3" fill="#D1DFF4" fill-opacity="0.25"/>
<circle cx="1114.85" cy="245" r="3" fill="#D1DFF4" fill-opacity="0.25"/>
<circle cx="1112.85" cy="105" r="3" fill="#D1DFF4" fill-opacity="0.25"/>
<circle cx="415.854" cy="105" r="3" fill="#D1DFF4" fill-opacity="0.25"/>
<circle cx="415.854" cy="245" r="3" fill="#D1DFF4" fill-opacity="0.25"/>
<circle cx="556.854" cy="245" r="3" fill="#D1DFF4" fill-opacity="0.25"/>
<circle cx="556.854" cy="105" r="3" fill="#D1DFF4" fill-opacity="0.25"/>
<circle cx="137.854" cy="105" r="3" fill="#D1DFF4" fill-opacity="0.25"/>
<circle cx="137.854" cy="245" r="3" fill="#D1DFF4" fill-opacity="0.25"/>
<circle cx="278.854" cy="245" r="3" fill="#D1DFF4" fill-opacity="0.25"/>
<circle cx="278.854" cy="105" r="3" fill="#D1DFF4" fill-opacity="0.25"/>
<circle cx="1253.85" cy="105" r="3" fill="#D1DFF4" fill-opacity="0.25"/>
<circle cx="1255.85" cy="245" r="3" fill="#D1DFF4" fill-opacity="0.25"/>
<circle cx="1396.85" cy="245" r="3" fill="#D1DFF4" fill-opacity="0.25"/>
<circle cx="1394.85" cy="105" r="3" fill="#D1DFF4" fill-opacity="0.25"/>
<circle cx="1532.85" cy="105" r="3" fill="#D1DFF4" fill-opacity="0.25"/>
<circle cx="1533.85" cy="245" r="3" fill="#D1DFF4" fill-opacity="0.25"/>
<circle cx="698.854" cy="385" r="3" fill="#D1DFF4" fill-opacity="0.25"/>
<circle cx="836.854" cy="385" r="3" fill="#D1DFF4" fill-opacity="0.25"/>
<circle cx="975.854" cy="385" r="3" fill="#D1DFF4" fill-opacity="0.25"/>
<circle cx="1115.85" cy="385" r="3" fill="#D1DFF4" fill-opacity="0.25"/>
<circle cx="415.854" cy="385" r="3" fill="#D1DFF4" fill-opacity="0.25"/>
<circle cx="556.854" cy="385" r="3" fill="#D1DFF4" fill-opacity="0.25"/>
<circle cx="138.854" cy="385" r="3" fill="#D1DFF4" fill-opacity="0.25"/>
<circle cx="278.854" cy="385" r="3" fill="#D1DFF4" fill-opacity="0.25"/>
<circle cx="1255.85" cy="386" r="3" fill="#D1DFF4" fill-opacity="0.25"/>
<circle cx="1395.85" cy="385" r="3" fill="#D1DFF4" fill-opacity="0.25"/>
<circle cx="1532.85" cy="385" r="3" fill="#D1DFF4" fill-opacity="0.25"/>
<circle cx="1673.85" cy="385" r="3" fill="#D1DFF4" fill-opacity="0.25"/>
<circle cx="698.854" cy="525" r="3" fill="#D1DFF4" fill-opacity="0.25"/>
<circle cx="836.854" cy="525" r="3" fill="#D1DFF4" fill-opacity="0.25"/>
<circle cx="975.854" cy="525" r="3" fill="#D1DFF4" fill-opacity="0.25"/>
<circle cx="1115.85" cy="525" r="3" fill="#D1DFF4" fill-opacity="0.25"/>
<circle cx="415.854" cy="525" r="3" fill="#D1DFF4" fill-opacity="0.25"/>
<circle cx="556.854" cy="525" r="3" fill="#D1DFF4" fill-opacity="0.25"/>
<circle cx="138.854" cy="525" r="3" fill="#D1DFF4" fill-opacity="0.25"/>
<circle cx="278.854" cy="525" r="3" fill="#D1DFF4" fill-opacity="0.25"/>
<circle cx="1255.85" cy="526" r="3" fill="#D1DFF4" fill-opacity="0.25"/>
<circle cx="1395.85" cy="525" r="3" fill="#D1DFF4" fill-opacity="0.25"/>
<circle cx="1532.85" cy="525" r="3" fill="#D1DFF4" fill-opacity="0.25"/>
<circle cx="1673.85" cy="525" r="3" fill="#D1DFF4" fill-opacity="0.25"/>
<circle cx="698.854" cy="665" r="3" fill="#D1DFF4" fill-opacity="0.25"/>
<circle cx="836.854" cy="665" r="3" fill="#D1DFF4" fill-opacity="0.25"/>
<circle cx="975.854" cy="665" r="3" fill="#D1DFF4" fill-opacity="0.25"/>
<circle cx="1115.85" cy="665" r="3" fill="#D1DFF4" fill-opacity="0.25"/>
<circle cx="415.854" cy="665" r="3" fill="#D1DFF4" fill-opacity="0.25"/>
<circle cx="556.854" cy="665" r="3" fill="#D1DFF4" fill-opacity="0.25"/>
<circle cx="138.854" cy="665" r="3" fill="#D1DFF4" fill-opacity="0.25"/>
<circle cx="278.854" cy="665" r="3" fill="#D1DFF4" fill-opacity="0.25"/>
<circle cx="1255.85" cy="666" r="3" fill="#D1DFF4" fill-opacity="0.25"/>
<circle cx="1395.85" cy="665" r="3" fill="#D1DFF4" fill-opacity="0.25"/>
<circle cx="1532.85" cy="665" r="3" fill="#D1DFF4" fill-opacity="0.25"/>
<circle cx="1673.85" cy="665" r="3" fill="#D1DFF4" fill-opacity="0.25"/>
<circle cx="1673.85" cy="245" r="3" fill="#D1DFF4" fill-opacity="0.25"/>
<circle cx="1673.85" cy="105" r="3" fill="#D1DFF4" fill-opacity="0.25"/>
</g>
</svg>
