<svg width="21" height="21" viewBox="0 0 21 21" fill="none" xmlns="http://www.w3.org/2000/svg">
<path fill-rule="evenodd" clip-rule="evenodd" d="M10.3577 1C7.50688 1 5.1756 3.33401 5.17561 6.18822C5.17562 9.04243 7.50689 11.3764 10.3577 11.3764C13.2086 11.3764 15.5314 9.04243 15.5314 6.18822C15.5314 3.33401 13.2086 1 10.3577 1ZM10.3577 2.72884C12.2753 2.72884 13.8046 4.26837 13.8046 6.18822C13.8046 8.1081 12.2753 9.6459 10.3577 9.6459C8.44013 9.6459 6.90243 8.1081 6.90242 6.18822C6.90241 4.26837 8.44012 2.72884 10.3577 2.72884ZM10.2887 13.1053C10.3126 13.1053 10.3356 13.1053 10.3577 13.1053C10.3801 13.1053 10.4035 13.1053 10.4277 13.1053C11.3375 13.1047 13.5209 13.1034 15.5904 13.7941C16.6528 14.1486 17.7049 14.693 18.5146 15.5685C19.3243 16.4441 19.8535 17.6658 19.8535 19.1545C19.8431 19.6245 19.4596 20 18.9901 20C18.5206 20 18.1371 19.6245 18.1267 19.1545C18.1267 18.05 17.7858 17.3251 17.2464 16.7419C16.7071 16.1587 15.9278 15.7272 15.0474 15.4335C13.2868 14.8467 11.2211 14.8341 10.3577 14.8341C9.49432 14.8341 7.42697 14.8459 5.66633 15.4335C4.78601 15.7273 3.99996 16.1587 3.4606 16.7419C2.92123 17.3251 2.58033 18.05 2.58033 19.1545C2.56992 19.6245 2.18642 20 1.71692 20C1.24742 20 0.863927 19.6245 0.853516 19.1545C0.853512 17.6658 1.38276 16.4441 2.19247 15.5685C3.00218 14.693 4.05593 14.1486 5.11827 13.7941C7.18857 13.1035 9.37915 13.1047 10.2887 13.1053Z" fill="#6B839A"/>
<path d="M5.17561 6.18822L4.92561 6.18822V6.18822L5.17561 6.18822ZM15.5314 6.18822L15.7814 6.18822V6.18822L15.5314 6.18822ZM13.8046 6.18822L14.0546 6.18822V6.18822L13.8046 6.18822ZM6.90242 6.18822L6.65242 6.18822V6.18822L6.90242 6.18822ZM10.2887 13.1053L10.2886 13.3553H10.2886L10.2887 13.1053ZM10.4277 13.1053L10.4275 12.8553H10.4275L10.4277 13.1053ZM15.5904 13.7941L15.5113 14.0313L15.5113 14.0313L15.5904 13.7941ZM18.5146 15.5685L18.6981 15.3988L18.5146 15.5685ZM19.8535 19.1545L20.1035 19.1601V19.1545H19.8535ZM18.1267 19.1545H17.8766L17.8768 19.1601L18.1267 19.1545ZM17.2464 16.7419L17.43 16.5722H17.43L17.2464 16.7419ZM15.0474 15.4335L15.1266 15.1963L15.1265 15.1963L15.0474 15.4335ZM5.66633 15.4335L5.58719 15.1963L5.66633 15.4335ZM3.4606 16.7419L3.27706 16.5722L3.27706 16.5722L3.4606 16.7419ZM2.58033 19.1545L2.83033 19.1601V19.1545H2.58033ZM0.853516 19.1545H0.603454L0.603577 19.1601L0.853516 19.1545ZM2.19247 15.5685L2.00893 15.3988H2.00893L2.19247 15.5685ZM5.11827 13.7941L5.03916 13.557L5.03913 13.557L5.11827 13.7941ZM5.42561 6.18822C5.4256 3.4718 7.64522 1.25 10.3577 1.25V0.75C7.36853 0.75 4.9256 3.19621 4.92561 6.18822L5.42561 6.18822ZM10.3577 11.1264C7.64524 11.1264 5.42562 8.90463 5.42561 6.18822L4.92561 6.18822C4.92562 9.18022 7.36854 11.6264 10.3577 11.6264V11.1264ZM15.2814 6.18822C15.2814 8.90516 13.0697 11.1264 10.3577 11.1264V11.6264C13.3475 11.6264 15.7814 9.17969 15.7814 6.18822L15.2814 6.18822ZM10.3577 1.25C13.0697 1.25 15.2814 3.47127 15.2814 6.18822L15.7814 6.18822C15.7814 3.19674 13.3475 0.75 10.3577 0.75V1.25ZM14.0546 6.18822C14.0546 4.13137 12.4145 2.47884 10.3577 2.47884V2.97884C12.1362 2.97884 13.5546 4.40536 13.5546 6.18822L14.0546 6.18822ZM10.3577 9.8959C12.4143 9.8959 14.0546 8.24525 14.0546 6.18822L13.5546 6.18822C13.5546 7.97094 12.1364 9.3959 10.3577 9.3959V9.8959ZM6.65242 6.18822C6.65243 8.24605 8.30194 9.8959 10.3577 9.8959V9.3959C8.57832 9.3959 7.15243 7.97015 7.15242 6.18822L6.65242 6.18822ZM10.3577 2.47884C8.30177 2.47884 6.65241 4.13057 6.65242 6.18822L7.15242 6.18822C7.15242 4.40616 8.57847 2.97884 10.3577 2.97884V2.47884ZM10.3577 12.8553C10.3357 12.8553 10.3128 12.8553 10.2889 12.8553L10.2886 13.3553C10.3125 13.3553 10.3355 13.3553 10.3577 13.3553V12.8553ZM10.4275 12.8553C10.4033 12.8553 10.38 12.8553 10.3577 12.8553V13.3553C10.3802 13.3553 10.4036 13.3553 10.4278 13.3553L10.4275 12.8553ZM15.6696 13.557C13.5573 12.8521 11.3368 12.8547 10.4275 12.8553L10.4278 13.3553C11.3382 13.3547 13.4844 13.3548 15.5113 14.0313L15.6696 13.557ZM18.6981 15.3988C17.8502 14.482 16.7558 13.9194 15.6696 13.557L15.5113 14.0313C16.5498 14.3778 17.5595 14.9041 18.331 15.7383L18.6981 15.3988ZM20.1035 19.1545C20.1035 17.6038 19.5512 16.3212 18.6981 15.3988L18.331 15.7383C19.0974 16.5669 19.6035 17.7278 19.6035 19.1545H20.1035ZM18.9901 20.25C19.5958 20.25 20.09 19.7656 20.1035 19.1601L19.6036 19.149C19.5962 19.4833 19.3234 19.75 18.9901 19.75V20.25ZM17.8768 19.1601C17.8902 19.7656 18.3844 20.25 18.9901 20.25V19.75C18.6568 19.75 18.3841 19.4833 18.3766 19.149L17.8768 19.1601ZM17.0629 16.9117C17.559 17.4482 17.8767 18.1122 17.8767 19.1545H18.3767C18.3767 17.9878 18.0126 17.2021 17.43 16.5722L17.0629 16.9117ZM14.9683 15.6706C15.8245 15.9563 16.5616 16.3696 17.0629 16.9117L17.43 16.5722C16.8525 15.9478 16.031 15.4981 15.1266 15.1963L14.9683 15.6706ZM10.3577 15.0841C11.2232 15.0841 13.2509 15.0983 14.9684 15.6707L15.1265 15.1963C13.3227 14.5952 11.2191 14.5841 10.3577 14.5841V15.0841ZM5.74547 15.6706C7.46286 15.0975 9.49209 15.0841 10.3577 15.0841V14.5841C9.49655 14.5841 7.39109 14.5943 5.58719 15.1963L5.74547 15.6706ZM3.64413 16.9117C4.14505 16.3701 4.88852 15.9566 5.74547 15.6706L5.58719 15.1963C4.6835 15.4979 3.85487 15.9474 3.27706 16.5722L3.64413 16.9117ZM2.83033 19.1545C2.83033 18.1122 3.14799 17.4482 3.64414 16.9117L3.27706 16.5722C2.69448 17.2021 2.33033 17.9878 2.33033 19.1545H2.83033ZM1.71692 20.25C2.3226 20.25 2.81685 19.7656 2.83027 19.1601L2.33039 19.149C2.32298 19.4833 2.05024 19.75 1.71692 19.75V20.25ZM0.603577 19.1601C0.616993 19.7656 1.11124 20.25 1.71692 20.25V19.75C1.3836 19.75 1.11086 19.4833 1.10345 19.149L0.603577 19.1601ZM2.00893 15.3988C1.15588 16.3212 0.603512 17.6038 0.603516 19.1545H1.10352C1.10351 17.7278 1.60965 16.5669 2.37601 15.7383L2.00893 15.3988ZM5.03913 13.557C3.9531 13.9194 2.85693 14.4819 2.00893 15.3988L2.37601 15.7383C3.14743 14.9042 4.15875 14.3779 5.19741 14.0313L5.03913 13.557ZM10.2889 12.8553C9.37989 12.8547 7.15215 12.8521 5.03916 13.557L5.19738 14.0313C7.22499 13.3549 9.37841 13.3547 10.2886 13.3553L10.2889 12.8553Z" fill="#6B839A"/>
</svg>
