<svg width="113" height="143" viewBox="0 0 113 143" fill="none" xmlns="http://www.w3.org/2000/svg">
<path d="M56.5 29.1899H28.2449V0.778809H0V29.1899H28.2449V57.6009H56.4898C64.034 57.6009 71.1308 60.5566 76.4687 65.9258C81.8065 71.2951 84.7449 78.4234 84.7449 86.0222C84.7449 93.621 81.8065 100.749 76.4687 106.119C71.1308 111.488 64.0442 114.444 56.4898 114.444C48.9355 114.444 41.8488 111.488 36.511 106.119C31.1731 100.749 28.2348 93.621 28.2348 86.0222V57.6112H0V86.0222C0 117.409 25.2964 142.855 56.5 142.855C87.7036 142.855 113 117.409 113 86.0222C113 54.6351 87.7036 29.1899 56.5 29.1899Z" fill="#F5AAC9"/>
</svg>
