<svg width="179" height="40" viewBox="0 0 179 40" fill="none" xmlns="http://www.w3.org/2000/svg">
<g clip-path="url(#clip0_1_362)">
<path d="M57.6625 7.99902H49.7105C40.9254 7.99902 33.8035 15.1629 33.8035 23.9996C33.8035 32.8363 40.9254 40.0002 49.7105 40.0002C52.6073 40.0002 55.3239 39.2199 57.6625 37.8579V40.0002H65.6146V16.0008H57.6625V23.9996C57.6625 26.1361 56.8353 28.1459 55.3325 29.6575C53.8296 31.1692 51.8345 32.0013 49.7076 32.0013C47.5808 32.0013 45.5856 31.1692 44.0828 29.6575C42.5799 28.1459 41.7527 26.139 41.7527 23.9996C41.7527 21.8602 42.5799 19.8533 44.0828 18.3417C45.5856 16.83 47.5808 15.9979 49.7076 15.9979H57.6597V7.99902H57.6625Z" fill="#F5AAC9"/>
<path d="M69.5906 7.99902V16.0008V23.9996V40.0002H77.5455V23.9996V16.0008H85.4976V7.99902H69.5906Z" fill="#F5AAC9"/>
<path d="M93.4497 16.0008H101.405V23.9996V32.0013V40.0002H109.357V32.0013V23.9996V16.0008V7.99902H93.4497V16.0008Z" fill="#F5AAC9"/>
<path d="M93.4496 16.0005H85.4976V39.9999H93.4496V16.0005Z" fill="#F5AAC9"/>
<path d="M129.24 7.99885H121.288V0H113.336V7.99885H121.288V15.9977H129.24C131.364 15.9977 133.362 16.8298 134.865 18.3415C136.367 19.8532 137.195 21.8601 137.195 23.9994C137.195 26.1388 136.367 28.1457 134.865 29.6574C133.362 31.169 131.367 32.0012 129.24 32.0012C127.113 32.0012 125.118 31.169 123.615 29.6574C122.112 28.1457 121.285 26.1388 121.285 23.9994V16.0006H113.333V23.9994C113.333 32.8362 120.455 40 129.24 40C138.025 40 145.147 32.8362 145.147 23.9994C145.147 15.1627 138.025 7.99885 129.24 7.99885Z" fill="#F5AAC9"/>
<path d="M15.907 7.99885H7.95207V0H0V7.99885H7.95207V15.9977H15.9041C18.0281 15.9977 20.0262 16.8298 21.529 18.3415C23.0318 19.8532 23.8591 21.8601 23.8591 23.9994C23.8591 26.1388 23.0318 28.1457 21.529 29.6574C20.0262 31.169 18.031 32.0012 15.9041 32.0012C13.7773 32.0012 11.7821 31.169 10.2793 29.6574C8.77648 28.1457 7.94921 26.1388 7.94921 23.9994V16.0006H0V23.9994C0 32.8362 7.12194 40 15.907 40C24.6921 40 31.814 32.8362 31.814 23.9994C31.814 15.1627 24.6921 7.99885 15.907 7.99885Z" fill="#F5AAC9"/>
<path d="M170.995 23.9996C170.995 26.1361 170.168 28.1459 168.665 29.6575C167.162 31.1692 165.167 32.0013 163.04 32.0013C160.913 32.0013 158.918 31.1692 157.415 29.6575C155.913 28.1459 155.085 26.139 155.085 23.9996C155.085 21.8602 155.913 19.8533 157.415 18.3417C158.918 16.83 160.913 15.9979 163.04 15.9979H170.992V7.99902H163.04C154.255 7.99902 147.133 15.1629 147.133 23.9996C147.133 32.8363 154.255 40.0002 163.04 40.0002C165.937 40.0002 168.654 39.2199 170.992 37.8579V40.0002H178.944V16.0008H170.992V23.9996H170.995Z" fill="#F5AAC9"/>
</g>
<defs>
<clipPath id="clip0_1_362">
<rect width="178.947" height="40" fill="white"/>
</clipPath>
</defs>
</svg>
