<svg width="131" height="28" viewBox="0 0 131 28" fill="none" xmlns="http://www.w3.org/2000/svg">
<path d="M49.5879 13.416C49.5879 12.9512 49.4772 12.5583 49.2559 12.2373C49.0456 11.9053 48.7689 11.6396 48.4258 11.4404C48.0827 11.2301 47.7008 11.0807 47.2803 10.9922C46.8597 10.8926 46.4502 10.8428 46.0518 10.8428C45.609 10.8428 45.1995 10.8926 44.8232 10.9922C44.458 11.0918 44.1426 11.2357 43.877 11.4238C43.6113 11.612 43.401 11.8444 43.2461 12.1211C43.1022 12.3867 43.0303 12.6855 43.0303 13.0176C43.0303 13.5931 43.2018 14.0524 43.5449 14.3955C43.8991 14.7275 44.4857 15.0374 45.3047 15.3252L48.6084 16.4873C50.0251 16.9632 51.0599 17.6107 51.7129 18.4297C52.3659 19.2487 52.6924 20.2282 52.6924 21.3682C52.6924 22.1318 52.5374 22.8346 52.2275 23.4766C51.9287 24.1074 51.4971 24.6497 50.9326 25.1035C50.3792 25.5462 49.7096 25.8893 48.9238 26.1328C48.138 26.3874 47.2637 26.5146 46.3008 26.5146C44.9616 26.5146 43.8714 26.2988 43.0303 25.8672C42.1891 25.4355 41.5417 24.8656 41.0879 24.1572H39.3613V21.3018H42.7979C42.7979 21.7777 42.8975 22.1872 43.0967 22.5303C43.307 22.8623 43.5781 23.1335 43.9102 23.3438C44.2533 23.554 44.6351 23.709 45.0557 23.8086C45.4873 23.9082 45.9245 23.958 46.3672 23.958C46.7988 23.958 47.2139 23.9082 47.6123 23.8086C48.0107 23.6979 48.3594 23.543 48.6582 23.3438C48.9681 23.1335 49.2116 22.8844 49.3887 22.5967C49.5658 22.3089 49.6543 21.9824 49.6543 21.6172C49.6543 21.0638 49.4717 20.5934 49.1064 20.2061C48.7523 19.8187 48.1436 19.4701 47.2803 19.1602L43.9932 17.9316C42.654 17.4557 41.6579 16.8525 41.0049 16.1221C40.363 15.3805 40.042 14.4564 40.042 13.3496C40.042 12.6191 40.1748 11.944 40.4404 11.3242C40.7171 10.7044 41.11 10.1732 41.6191 9.73047C42.1393 9.27669 42.7702 8.92253 43.5117 8.66797C44.2533 8.41341 45.0999 8.28613 46.0518 8.28613C47.2803 8.28613 48.3096 8.45768 49.1396 8.80078C49.9697 9.14388 50.7168 9.73047 51.3809 10.5605H52.9912V13.416H49.5879ZM55.3493 8.80078H60.9606V23.1445H63.5505V26H55.3825V23.1445H57.8395V11.6562H55.3493V8.80078ZM57.2585 2.70801C57.2585 2.42025 57.3138 2.14909 57.4245 1.89453C57.5462 1.62891 57.7012 1.40202 57.8893 1.21387C58.0886 1.01465 58.321 0.859701 58.5866 0.749023C58.8522 0.627279 59.1345 0.566406 59.4333 0.566406C59.721 0.566406 59.9922 0.627279 60.2468 0.749023C60.5124 0.859701 60.7393 1.01465 60.9274 1.21387C61.1266 1.40202 61.2816 1.62891 61.3923 1.89453C61.514 2.14909 61.5749 2.42025 61.5749 2.70801C61.5749 3.00684 61.514 3.28906 61.3923 3.55469C61.2816 3.82031 61.1266 4.05827 60.9274 4.26855C60.7393 4.46777 60.5124 4.62826 60.2468 4.75C59.9922 4.86068 59.721 4.91602 59.4333 4.91602C59.1345 4.91602 58.8522 4.86068 58.5866 4.75C58.321 4.62826 58.0886 4.46777 57.8893 4.26855C57.7012 4.05827 57.5462 3.82031 57.4245 3.55469C57.3138 3.28906 57.2585 3.00684 57.2585 2.70801ZM77.0482 23.1445H79.472V15.292C79.472 13.9749 79.1345 12.9788 78.4593 12.3037C77.7953 11.6175 76.8379 11.2744 75.5873 11.2744C74.8679 11.2744 74.1429 11.446 73.4125 11.7891C72.682 12.1322 71.9903 12.5583 71.3373 13.0674V23.1445H73.7611V26H65.7259V23.1445H68.1166V11.6562H65.7259V8.80078H71.2045V10.8262H71.2377C71.6029 10.5052 71.9903 10.2008 72.3998 9.91309C72.8203 9.62533 73.2575 9.3763 73.7113 9.16602C74.1651 8.95573 74.6354 8.78971 75.1224 8.66797C75.6205 8.54622 76.1407 8.48535 76.683 8.48535C77.6016 8.48535 78.4317 8.61263 79.1732 8.86719C79.9147 9.12174 80.5456 9.50911 81.0658 10.0293C81.586 10.5495 81.9844 11.2191 82.2611 12.0381C82.5489 12.846 82.6927 13.8034 82.6927 14.9102V23.1445H85.0834V26H77.0482V23.1445ZM100.142 13.3828C99.6768 12.5527 99.0847 11.944 98.3653 11.5566C97.6569 11.1693 96.8324 10.9756 95.8916 10.9756C95.1722 10.9756 94.4971 11.125 93.8662 11.4238C93.2354 11.7227 92.682 12.1488 92.2061 12.7021C91.7412 13.2555 91.3705 13.9307 91.0938 14.7275C90.8282 15.5133 90.6954 16.3932 90.6954 17.3672C90.6954 18.3301 90.8282 19.1989 91.0938 19.9736C91.3705 20.7484 91.7468 21.4124 92.2227 21.9658C92.6986 22.5081 93.2465 22.9287 93.8662 23.2275C94.4971 23.5153 95.1722 23.6592 95.8916 23.6592C96.9541 23.6592 97.8783 23.4046 98.6641 22.8955C99.4499 22.3753 100.075 21.6172 100.54 20.6211L103.097 21.8828C102.765 22.5911 102.355 23.2275 101.868 23.792C101.381 24.3564 100.828 24.8379 100.208 25.2363C99.5993 25.6348 98.9242 25.9391 98.1827 26.1494C97.4522 26.3708 96.6774 26.4814 95.8584 26.4814C94.6631 26.4814 93.5564 26.2601 92.5381 25.8174C91.531 25.3636 90.6566 24.7327 89.9151 23.9248C89.1846 23.1169 88.6146 22.154 88.2051 21.0361C87.7956 19.9183 87.5909 18.6953 87.5909 17.3672C87.5909 16.0391 87.8067 14.8161 88.2383 13.6982C88.67 12.5804 89.2621 11.623 90.0147 10.8262C90.7673 10.0182 91.6472 9.38737 92.6543 8.93359C93.6615 8.47982 94.7406 8.25293 95.8916 8.25293C96.9763 8.25293 98 8.44108 98.9629 8.81738C99.9369 9.19368 100.789 9.76367 101.52 10.5273H103.263V13.3828H100.142ZM105.372 17.4004C105.383 16.0391 105.599 14.7995 106.019 13.6816C106.451 12.5638 107.049 11.6064 107.812 10.8096C108.576 10.0016 109.483 9.38184 110.535 8.9502C111.586 8.51855 112.743 8.30273 114.005 8.30273C115.277 8.30273 116.44 8.51855 117.491 8.9502C118.553 9.38184 119.461 9.99609 120.214 10.793C120.966 11.5788 121.553 12.5306 121.973 13.6484C122.394 14.7663 122.604 16.0059 122.604 17.3672C122.604 18.7064 122.394 19.9404 121.973 21.0693C121.553 22.1872 120.966 23.1501 120.214 23.958C119.461 24.766 118.553 25.3968 117.491 25.8506C116.44 26.2933 115.277 26.5146 114.005 26.5146C112.71 26.5146 111.537 26.2933 110.485 25.8506C109.434 25.4079 108.532 24.7881 107.779 23.9912C107.026 23.1833 106.44 22.2204 106.019 21.1025C105.599 19.9847 105.383 18.7507 105.372 17.4004ZM108.642 17.4004C108.642 18.3854 108.781 19.2764 109.057 20.0732C109.345 20.8701 109.732 21.5508 110.219 22.1152C110.717 22.6686 111.287 23.1003 111.929 23.4102C112.582 23.709 113.274 23.8584 114.005 23.8584C114.768 23.8584 115.477 23.709 116.13 23.4102C116.794 23.1113 117.369 22.6852 117.856 22.1318C118.343 21.5674 118.725 20.8867 119.002 20.0898C119.278 19.293 119.417 18.3965 119.417 17.4004C119.417 16.36 119.278 15.4359 119.002 14.6279C118.725 13.82 118.343 13.1449 117.856 12.6025C117.38 12.0602 116.81 11.6507 116.146 11.374C115.482 11.0973 114.768 10.959 114.005 10.959C113.274 10.959 112.582 11.0973 111.929 11.374C111.287 11.6507 110.717 12.0602 110.219 12.6025C109.732 13.1449 109.345 13.82 109.057 14.6279C108.781 15.4359 108.642 16.36 108.642 17.4004ZM124.381 23.9912C124.381 23.7035 124.437 23.4323 124.547 23.1777C124.669 22.9121 124.829 22.6852 125.029 22.4971C125.228 22.2979 125.455 22.1429 125.709 22.0322C125.975 21.9105 126.257 21.8496 126.556 21.8496C126.844 21.8496 127.115 21.9105 127.37 22.0322C127.635 22.1429 127.862 22.2979 128.05 22.4971C128.249 22.6852 128.404 22.9121 128.515 23.1777C128.637 23.4323 128.698 23.7035 128.698 23.9912C128.698 24.29 128.637 24.5723 128.515 24.8379C128.404 25.1035 128.249 25.3415 128.05 25.5518C127.862 25.751 127.635 25.9059 127.37 26.0166C127.115 26.1383 126.844 26.1992 126.556 26.1992C126.257 26.1992 125.975 26.1383 125.709 26.0166C125.455 25.9059 125.228 25.751 125.029 25.5518C124.829 25.3415 124.669 25.1035 124.547 24.8379C124.437 24.5723 124.381 24.29 124.381 23.9912Z" fill="black"/>
<rect x="1.38177" y="7.92453" width="20.0755" height="20.0755" rx="5" fill="#4992FF"/>
<rect x="8.77808" width="20.0755" height="20.0755" rx="5" fill="#49DEFF"/>
<rect x="0.853516" y="0.52829" width="4.22642" height="4.22642" rx="2" fill="#FF9F0F"/>
</svg>
